<svg xmlns="http://www.w3.org/2000/svg" viewBox="0 0 48 48" role="img" aria-label="Google logo">
  <path fill="#4285F4" d="M46.49 24.55c0-1.64-.15-3.22-.42-4.74H24v8.97h12.62a10.8 10.8 0 0 1-4.68 7.1v5.92h7.58c4.44-4.09 6.97-10.12 6.97-17.25Z"/>
  <path fill="#34A853" d="M24 47c6.35 0 11.67-2.1 15.56-5.7l-7.58-5.92c-2.1 1.41-4.79 2.25-7.98 2.25-6.13 0-11.33-4.14-13.19-9.7H3v6.1C6.88 41.68 14.85 47 24 47Z"/>
  <path fill="#FBBC05" d="M10.81 27.93A13.84 13.84 0 0 1 10.08 24c0-1.36.24-2.68.73-3.93v-6.1H3A23.5 23.5 0 0 0 .5 24c0 3.62.87 7.04 2.5 10.03l7.81-6.1Z"/>
  <path fill="#EA4335" d="M24 9.37c3.45 0 6.55 1.19 8.99 3.52l6.74-6.74C35.66 2.23 30.35 0 24 0 14.85 0 6.88 5.32 3 13.97l7.81 6.1C12.67 13.51 17.87 9.37 24 9.37Z"/>
</svg>
